<mxfile host="65bd71144e">
    <diagram id="6G2-W6Pb-bkpm1knbDti" name="Step 4">
        <mxGraphModel dx="2477" dy="1764" grid="1" gridSize="10" guides="1" tooltips="1" connect="1" arrows="1" fold="1" page="1" pageScale="1" pageWidth="1169" pageHeight="827" background="#CCCCCC" math="0" shadow="0">
            <root>
                <mxCell id="oxJ8J-DIxBXLLxTFxaPv-0"/>
                <mxCell id="oxJ8J-DIxBXLLxTFxaPv-1" parent="oxJ8J-DIxBXLLxTFxaPv-0"/>
                <mxCell id="_QJzeNLE5xnhNLzjGvBp-0" value="buses" style="swimlane;fontStyle=0;childLayout=stackLayout;horizontal=1;startSize=26;fillColor=#f0a30a;horizontalStack=0;resizeParent=1;resizeParentMax=0;resizeLast=0;collapsible=1;marginBottom=0;fontColor=#000000;strokeColor=#BD7000;" parent="oxJ8J-DIxBXLLxTFxaPv-1" vertex="1">
                    <mxGeometry x="510" y="-420" width="180" height="130" as="geometry"/>
                </mxCell>
                <mxCell id="_QJzeNLE5xnhNLzjGvBp-1" value="id: int" style="text;strokeColor=none;fillColor=none;align=left;verticalAlign=top;spacingLeft=4;spacingRight=4;overflow=hidden;rotatable=0;points=[[0,0.5],[1,0.5]];portConstraint=eastwest;fontStyle=4;fontColor=#000000;" parent="_QJzeNLE5xnhNLzjGvBp-0" vertex="1">
                    <mxGeometry y="26" width="180" height="26" as="geometry"/>
                </mxCell>
                <mxCell id="_QJzeNLE5xnhNLzjGvBp-2" value="plate_number: int" style="text;strokeColor=none;fillColor=none;align=left;verticalAlign=top;spacingLeft=4;spacingRight=4;overflow=hidden;rotatable=0;points=[[0,0.5],[1,0.5]];portConstraint=eastwest;fontColor=#000000;" parent="_QJzeNLE5xnhNLzjGvBp-0" vertex="1">
                    <mxGeometry y="52" width="180" height="26" as="geometry"/>
                </mxCell>
                <mxCell id="_QJzeNLE5xnhNLzjGvBp-3" value="model_bus: string" style="text;strokeColor=none;fillColor=none;align=left;verticalAlign=top;spacingLeft=4;spacingRight=4;overflow=hidden;rotatable=0;points=[[0,0.5],[1,0.5]];portConstraint=eastwest;fontColor=#000000;" parent="_QJzeNLE5xnhNLzjGvBp-0" vertex="1">
                    <mxGeometry y="78" width="180" height="26" as="geometry"/>
                </mxCell>
                <mxCell id="_QJzeNLE5xnhNLzjGvBp-4" value="capacity_passengers: int" style="text;strokeColor=none;fillColor=none;align=left;verticalAlign=top;spacingLeft=4;spacingRight=4;overflow=hidden;rotatable=0;points=[[0,0.5],[1,0.5]];portConstraint=eastwest;fontColor=#000000;" parent="_QJzeNLE5xnhNLzjGvBp-0" vertex="1">
                    <mxGeometry y="104" width="180" height="26" as="geometry"/>
                </mxCell>
                <mxCell id="_QJzeNLE5xnhNLzjGvBp-29" value="" style="edgeStyle=orthogonalEdgeStyle;html=1;entryX=0;entryY=0.5;entryDx=0;entryDy=0;exitX=1;exitY=0.5;exitDx=0;exitDy=0;endArrow=ERmany;endFill=0;fontColor=#000000;strokeColor=#2000F0;" parent="oxJ8J-DIxBXLLxTFxaPv-1" source="_QJzeNLE5xnhNLzjGvBp-7" target="_QJzeNLE5xnhNLzjGvBp-32" edge="1">
                    <mxGeometry relative="1" as="geometry"/>
                </mxCell>
                <mxCell id="_QJzeNLE5xnhNLzjGvBp-6" value="name_driver" style="swimlane;fontStyle=0;childLayout=stackLayout;horizontal=1;startSize=26;fillColor=#f0a30a;horizontalStack=0;resizeParent=1;resizeParentMax=0;resizeLast=0;collapsible=1;marginBottom=0;fontColor=#000000;strokeColor=#BD7000;" parent="oxJ8J-DIxBXLLxTFxaPv-1" vertex="1">
                    <mxGeometry x="-30" y="-460" width="180" height="130" as="geometry"/>
                </mxCell>
                <mxCell id="_QJzeNLE5xnhNLzjGvBp-7" value="id: int" style="text;strokeColor=none;fillColor=none;align=left;verticalAlign=top;spacingLeft=4;spacingRight=4;overflow=hidden;rotatable=0;points=[[0,0.5],[1,0.5]];portConstraint=eastwest;fontStyle=4;fontColor=#000000;" parent="_QJzeNLE5xnhNLzjGvBp-6" vertex="1">
                    <mxGeometry y="26" width="180" height="26" as="geometry"/>
                </mxCell>
                <mxCell id="_QJzeNLE5xnhNLzjGvBp-8" value="first_name: string" style="text;strokeColor=none;fillColor=none;align=left;verticalAlign=top;spacingLeft=4;spacingRight=4;overflow=hidden;rotatable=0;points=[[0,0.5],[1,0.5]];portConstraint=eastwest;fontColor=#000000;" parent="_QJzeNLE5xnhNLzjGvBp-6" vertex="1">
                    <mxGeometry y="52" width="180" height="26" as="geometry"/>
                </mxCell>
                <mxCell id="_QJzeNLE5xnhNLzjGvBp-9" value="last_name: string" style="text;strokeColor=none;fillColor=none;align=left;verticalAlign=top;spacingLeft=4;spacingRight=4;overflow=hidden;rotatable=0;points=[[0,0.5],[1,0.5]];portConstraint=eastwest;fontColor=#000000;" parent="_QJzeNLE5xnhNLzjGvBp-6" vertex="1">
                    <mxGeometry y="78" width="180" height="26" as="geometry"/>
                </mxCell>
                <mxCell id="_QJzeNLE5xnhNLzjGvBp-10" value="birth_date: int" style="text;strokeColor=none;fillColor=none;align=left;verticalAlign=top;spacingLeft=4;spacingRight=4;overflow=hidden;rotatable=0;points=[[0,0.5],[1,0.5]];portConstraint=eastwest;fontColor=#000000;" parent="_QJzeNLE5xnhNLzjGvBp-6" vertex="1">
                    <mxGeometry y="104" width="180" height="26" as="geometry"/>
                </mxCell>
                <mxCell id="rckTkFBSu85tZm66KFjv-0" value="" style="edgeStyle=orthogonalEdgeStyle;html=1;endArrow=ERmany;endFill=0;entryX=1;entryY=0.5;entryDx=0;entryDy=0;exitX=0;exitY=0.5;exitDx=0;exitDy=0;fontColor=#000000;strokeColor=#2000F0;" parent="oxJ8J-DIxBXLLxTFxaPv-1" source="_QJzeNLE5xnhNLzjGvBp-12" target="_QJzeNLE5xnhNLzjGvBp-39" edge="1">
                    <mxGeometry relative="1" as="geometry">
                        <mxPoint x="570" y="99" as="sourcePoint"/>
                        <mxPoint x="560" y="-93" as="targetPoint"/>
                        <Array as="points">
                            <mxPoint x="600" y="39"/>
                            <mxPoint x="600" y="-129"/>
                        </Array>
                    </mxGeometry>
                </mxCell>
                <mxCell id="_QJzeNLE5xnhNLzjGvBp-11" value="routes_lines" style="swimlane;fontStyle=0;childLayout=stackLayout;horizontal=1;startSize=26;fillColor=#f0a30a;horizontalStack=0;resizeParent=1;resizeParentMax=0;resizeLast=0;collapsible=1;marginBottom=0;fontColor=#000000;strokeColor=#BD7000;" parent="oxJ8J-DIxBXLLxTFxaPv-1" vertex="1">
                    <mxGeometry x="647" width="180" height="182" as="geometry"/>
                </mxCell>
                <mxCell id="_QJzeNLE5xnhNLzjGvBp-12" value="id: int" style="text;strokeColor=none;fillColor=none;align=left;verticalAlign=top;spacingLeft=4;spacingRight=4;overflow=hidden;rotatable=0;points=[[0,0.5],[1,0.5]];portConstraint=eastwest;fontStyle=4;fontColor=#000000;" parent="_QJzeNLE5xnhNLzjGvBp-11" vertex="1">
                    <mxGeometry y="26" width="180" height="26" as="geometry"/>
                </mxCell>
                <mxCell id="_QJzeNLE5xnhNLzjGvBp-13" value="code: int" style="text;strokeColor=none;fillColor=none;align=left;verticalAlign=top;spacingLeft=4;spacingRight=4;overflow=hidden;rotatable=0;points=[[0,0.5],[1,0.5]];portConstraint=eastwest;fontColor=#000000;" parent="_QJzeNLE5xnhNLzjGvBp-11" vertex="1">
                    <mxGeometry y="52" width="180" height="26" as="geometry"/>
                </mxCell>
                <mxCell id="_QJzeNLE5xnhNLzjGvBp-14" value="distance_km: int" style="text;strokeColor=none;fillColor=none;align=left;verticalAlign=top;spacingLeft=4;spacingRight=4;overflow=hidden;rotatable=0;points=[[0,0.5],[1,0.5]];portConstraint=eastwest;fontColor=#000000;" parent="_QJzeNLE5xnhNLzjGvBp-11" vertex="1">
                    <mxGeometry y="78" width="180" height="26" as="geometry"/>
                </mxCell>
                <mxCell id="_QJzeNLE5xnhNLzjGvBp-15" value="source_company: string" style="text;strokeColor=none;fillColor=none;align=left;verticalAlign=top;spacingLeft=4;spacingRight=4;overflow=hidden;rotatable=0;points=[[0,0.5],[1,0.5]];portConstraint=eastwest;fontColor=#000000;" parent="_QJzeNLE5xnhNLzjGvBp-11" vertex="1">
                    <mxGeometry y="104" width="180" height="26" as="geometry"/>
                </mxCell>
                <mxCell id="_QJzeNLE5xnhNLzjGvBp-16" value="destination: string" style="text;strokeColor=none;fillColor=none;align=left;verticalAlign=top;spacingLeft=4;spacingRight=4;overflow=hidden;rotatable=0;points=[[0,0.5],[1,0.5]];portConstraint=eastwest;fontColor=#000000;" parent="_QJzeNLE5xnhNLzjGvBp-11" vertex="1">
                    <mxGeometry y="130" width="180" height="26" as="geometry"/>
                </mxCell>
                <mxCell id="_QJzeNLE5xnhNLzjGvBp-17" value="fk_busstation: int" style="text;strokeColor=#006EAF;fillColor=#1ba1e2;align=left;verticalAlign=top;spacingLeft=4;spacingRight=4;overflow=hidden;rotatable=0;points=[[0,0.5],[1,0.5]];portConstraint=eastwest;fontColor=#000000;" parent="_QJzeNLE5xnhNLzjGvBp-11" vertex="1">
                    <mxGeometry y="156" width="180" height="26" as="geometry"/>
                </mxCell>
                <mxCell id="_QJzeNLE5xnhNLzjGvBp-18" value="city" style="swimlane;fontStyle=0;childLayout=stackLayout;horizontal=1;startSize=26;fillColor=#f0a30a;horizontalStack=0;resizeParent=1;resizeParentMax=0;resizeLast=0;collapsible=1;marginBottom=0;fontColor=#000000;strokeColor=#BD7000;" parent="oxJ8J-DIxBXLLxTFxaPv-1" vertex="1">
                    <mxGeometry x="54" y="230" width="180" height="104" as="geometry"/>
                </mxCell>
                <mxCell id="_QJzeNLE5xnhNLzjGvBp-19" value="id: int" style="text;strokeColor=none;fillColor=none;align=left;verticalAlign=top;spacingLeft=4;spacingRight=4;overflow=hidden;rotatable=0;points=[[0,0.5],[1,0.5]];portConstraint=eastwest;fontStyle=4;fontColor=#000000;" parent="_QJzeNLE5xnhNLzjGvBp-18" vertex="1">
                    <mxGeometry y="26" width="180" height="26" as="geometry"/>
                </mxCell>
                <mxCell id="_QJzeNLE5xnhNLzjGvBp-20" value="city_name: string" style="text;strokeColor=none;fillColor=none;align=left;verticalAlign=top;spacingLeft=4;spacingRight=4;overflow=hidden;rotatable=0;points=[[0,0.5],[1,0.5]];portConstraint=eastwest;fontColor=#000000;" parent="_QJzeNLE5xnhNLzjGvBp-18" vertex="1">
                    <mxGeometry y="52" width="180" height="26" as="geometry"/>
                </mxCell>
                <mxCell id="_QJzeNLE5xnhNLzjGvBp-21" value="city_adress: string" style="text;strokeColor=none;fillColor=none;align=left;verticalAlign=top;spacingLeft=4;spacingRight=4;overflow=hidden;rotatable=0;points=[[0,0.5],[1,0.5]];portConstraint=eastwest;fontColor=#000000;" parent="_QJzeNLE5xnhNLzjGvBp-18" vertex="1">
                    <mxGeometry y="78" width="180" height="26" as="geometry"/>
                </mxCell>
                <mxCell id="_QJzeNLE5xnhNLzjGvBp-23" value="busstation" style="swimlane;fontStyle=0;childLayout=stackLayout;horizontal=1;startSize=26;fillColor=#f0a30a;horizontalStack=0;resizeParent=1;resizeParentMax=0;resizeLast=0;collapsible=1;marginBottom=0;fontColor=#000000;strokeColor=#BD7000;" parent="oxJ8J-DIxBXLLxTFxaPv-1" vertex="1">
                    <mxGeometry x="54" y="-20" width="180" height="130" as="geometry"/>
                </mxCell>
                <mxCell id="_QJzeNLE5xnhNLzjGvBp-24" value="id: int" style="text;strokeColor=none;fillColor=none;align=left;verticalAlign=top;spacingLeft=4;spacingRight=4;overflow=hidden;rotatable=0;points=[[0,0.5],[1,0.5]];portConstraint=eastwest;fontStyle=4;fontColor=#000000;" parent="_QJzeNLE5xnhNLzjGvBp-23" vertex="1">
                    <mxGeometry y="26" width="180" height="26" as="geometry"/>
                </mxCell>
                <mxCell id="_QJzeNLE5xnhNLzjGvBp-25" value="order_number: int" style="text;strokeColor=none;fillColor=none;align=left;verticalAlign=top;spacingLeft=4;spacingRight=4;overflow=hidden;rotatable=0;points=[[0,0.5],[1,0.5]];portConstraint=eastwest;fontColor=#000000;" parent="_QJzeNLE5xnhNLzjGvBp-23" vertex="1">
                    <mxGeometry y="52" width="180" height="26" as="geometry"/>
                </mxCell>
                <mxCell id="_QJzeNLE5xnhNLzjGvBp-26" value="name: string" style="text;strokeColor=none;fillColor=none;align=left;verticalAlign=top;spacingLeft=4;spacingRight=4;overflow=hidden;rotatable=0;points=[[0,0.5],[1,0.5]];portConstraint=eastwest;fontColor=#000000;" parent="_QJzeNLE5xnhNLzjGvBp-23" vertex="1">
                    <mxGeometry y="78" width="180" height="26" as="geometry"/>
                </mxCell>
                <mxCell id="_QJzeNLE5xnhNLzjGvBp-27" value="telefonnumber: int" style="text;strokeColor=none;fillColor=none;align=left;verticalAlign=top;spacingLeft=4;spacingRight=4;overflow=hidden;rotatable=0;points=[[0,0.5],[1,0.5]];portConstraint=eastwest;fontColor=#000000;" parent="_QJzeNLE5xnhNLzjGvBp-23" vertex="1">
                    <mxGeometry y="104" width="180" height="26" as="geometry"/>
                </mxCell>
                <mxCell id="_QJzeNLE5xnhNLzjGvBp-30" value="drivers_buses" style="swimlane;fontStyle=0;childLayout=stackLayout;horizontal=1;startSize=26;fillColor=#f0a30a;horizontalStack=0;resizeParent=1;resizeParentMax=0;resizeLast=0;collapsible=1;marginBottom=0;fontColor=#000000;strokeColor=#BD7000;" parent="oxJ8J-DIxBXLLxTFxaPv-1" vertex="1">
                    <mxGeometry x="234" y="-380" width="180" height="104" as="geometry"/>
                </mxCell>
                <mxCell id="_QJzeNLE5xnhNLzjGvBp-31" value="id: int" style="text;strokeColor=none;fillColor=none;align=left;verticalAlign=top;spacingLeft=4;spacingRight=4;overflow=hidden;rotatable=0;points=[[0,0.5],[1,0.5]];portConstraint=eastwest;fontStyle=4;fontColor=#000000;" parent="_QJzeNLE5xnhNLzjGvBp-30" vertex="1">
                    <mxGeometry y="26" width="180" height="26" as="geometry"/>
                </mxCell>
                <mxCell id="_QJzeNLE5xnhNLzjGvBp-32" value="fk_name_driver: int" style="text;strokeColor=#006EAF;fillColor=#1ba1e2;align=left;verticalAlign=top;spacingLeft=4;spacingRight=4;overflow=hidden;rotatable=0;points=[[0,0.5],[1,0.5]];portConstraint=eastwest;fontColor=#000000;" parent="_QJzeNLE5xnhNLzjGvBp-30" vertex="1">
                    <mxGeometry y="52" width="180" height="26" as="geometry"/>
                </mxCell>
                <mxCell id="_QJzeNLE5xnhNLzjGvBp-33" value="fk_buses: int" style="text;strokeColor=#006EAF;fillColor=#1ba1e2;align=left;verticalAlign=top;spacingLeft=4;spacingRight=4;overflow=hidden;rotatable=0;points=[[0,0.5],[1,0.5]];portConstraint=eastwest;fontColor=#000000;" parent="_QJzeNLE5xnhNLzjGvBp-30" vertex="1">
                    <mxGeometry y="78" width="180" height="26" as="geometry"/>
                </mxCell>
                <mxCell id="_QJzeNLE5xnhNLzjGvBp-35" value="" style="edgeStyle=orthogonalEdgeStyle;html=1;endArrow=ERmany;endFill=0;exitX=0;exitY=0.5;exitDx=0;exitDy=0;entryX=1;entryY=0.5;entryDx=0;entryDy=0;fontColor=#000000;strokeColor=#2000F0;" parent="oxJ8J-DIxBXLLxTFxaPv-1" source="_QJzeNLE5xnhNLzjGvBp-1" target="_QJzeNLE5xnhNLzjGvBp-33" edge="1">
                    <mxGeometry relative="1" as="geometry">
                        <mxPoint x="470" y="-160" as="targetPoint"/>
                    </mxGeometry>
                </mxCell>
                <mxCell id="_QJzeNLE5xnhNLzjGvBp-36" value="buses_routes_lines" style="swimlane;fontStyle=0;childLayout=stackLayout;horizontal=1;startSize=26;fillColor=#f0a30a;horizontalStack=0;resizeParent=1;resizeParentMax=0;resizeLast=0;collapsible=1;marginBottom=0;fontColor=#000000;strokeColor=#BD7000;" parent="oxJ8J-DIxBXLLxTFxaPv-1" vertex="1">
                    <mxGeometry x="370" y="-220" width="180" height="104" as="geometry"/>
                </mxCell>
                <mxCell id="_QJzeNLE5xnhNLzjGvBp-37" value="id: int" style="text;strokeColor=none;fillColor=none;align=left;verticalAlign=top;spacingLeft=4;spacingRight=4;overflow=hidden;rotatable=0;points=[[0,0.5],[1,0.5]];portConstraint=eastwest;fontStyle=4;fontColor=#000000;" parent="_QJzeNLE5xnhNLzjGvBp-36" vertex="1">
                    <mxGeometry y="26" width="180" height="26" as="geometry"/>
                </mxCell>
                <mxCell id="_QJzeNLE5xnhNLzjGvBp-38" value="fk_buses: int" style="text;strokeColor=#006EAF;fillColor=#1ba1e2;align=left;verticalAlign=top;spacingLeft=4;spacingRight=4;overflow=hidden;rotatable=0;points=[[0,0.5],[1,0.5]];portConstraint=eastwest;fontColor=#000000;" parent="_QJzeNLE5xnhNLzjGvBp-36" vertex="1">
                    <mxGeometry y="52" width="180" height="26" as="geometry"/>
                </mxCell>
                <mxCell id="_QJzeNLE5xnhNLzjGvBp-39" value="fk_routes_lines: int" style="text;strokeColor=#006EAF;fillColor=#1ba1e2;align=left;verticalAlign=top;spacingLeft=4;spacingRight=4;overflow=hidden;rotatable=0;points=[[0,0.5],[1,0.5]];portConstraint=eastwest;fontColor=#000000;" parent="_QJzeNLE5xnhNLzjGvBp-36" vertex="1">
                    <mxGeometry y="78" width="180" height="26" as="geometry"/>
                </mxCell>
                <mxCell id="rckTkFBSu85tZm66KFjv-4" style="edgeStyle=orthogonalEdgeStyle;html=1;exitX=1;exitY=0.5;exitDx=0;exitDy=0;endArrow=ERmany;endFill=0;entryX=1;entryY=0.5;entryDx=0;entryDy=0;fontColor=#000000;strokeColor=#2000F0;" parent="oxJ8J-DIxBXLLxTFxaPv-1" source="_QJzeNLE5xnhNLzjGvBp-1" target="_QJzeNLE5xnhNLzjGvBp-38" edge="1">
                    <mxGeometry relative="1" as="geometry">
                        <mxPoint x="550" y="-120" as="targetPoint"/>
                        <Array as="points">
                            <mxPoint x="740" y="-381"/>
                            <mxPoint x="740" y="-155"/>
                        </Array>
                    </mxGeometry>
                </mxCell>
                <mxCell id="rckTkFBSu85tZm66KFjv-5" style="edgeStyle=orthogonalEdgeStyle;html=1;entryX=1;entryY=0.5;entryDx=0;entryDy=0;endArrow=ERmany;endFill=0;fontColor=#000000;strokeColor=#2000F0;" parent="oxJ8J-DIxBXLLxTFxaPv-1" source="_QJzeNLE5xnhNLzjGvBp-17" target="rckTkFBSu85tZm66KFjv-9" edge="1">
                    <mxGeometry relative="1" as="geometry"/>
                </mxCell>
                <mxCell id="rckTkFBSu85tZm66KFjv-15" style="edgeStyle=orthogonalEdgeStyle;html=1;exitX=0;exitY=0.75;exitDx=0;exitDy=0;entryX=1;entryY=0.5;entryDx=0;entryDy=0;endArrow=none;endFill=0;startArrow=ERmany;startFill=0;fontColor=#000000;strokeColor=#2000F0;" parent="oxJ8J-DIxBXLLxTFxaPv-1" source="rckTkFBSu85tZm66KFjv-7" target="_QJzeNLE5xnhNLzjGvBp-24" edge="1">
                    <mxGeometry relative="1" as="geometry"/>
                </mxCell>
                <mxCell id="rckTkFBSu85tZm66KFjv-7" value="routes_bustation_city" style="swimlane;fontStyle=0;childLayout=stackLayout;horizontal=1;startSize=26;fillColor=#f0a30a;horizontalStack=0;resizeParent=1;resizeParentMax=0;resizeLast=0;collapsible=1;marginBottom=0;fontColor=#000000;strokeColor=#BD7000;" parent="oxJ8J-DIxBXLLxTFxaPv-1" vertex="1">
                    <mxGeometry x="380" y="60" width="180" height="130" as="geometry"/>
                </mxCell>
                <mxCell id="rckTkFBSu85tZm66KFjv-8" value="id: int" style="text;strokeColor=none;fillColor=none;align=left;verticalAlign=top;spacingLeft=4;spacingRight=4;overflow=hidden;rotatable=0;points=[[0,0.5],[1,0.5]];portConstraint=eastwest;fontStyle=4;fontColor=#000000;" parent="rckTkFBSu85tZm66KFjv-7" vertex="1">
                    <mxGeometry y="26" width="180" height="26" as="geometry"/>
                </mxCell>
                <mxCell id="rckTkFBSu85tZm66KFjv-9" value="fk_routes_lines: int" style="text;strokeColor=#006EAF;fillColor=#1ba1e2;align=left;verticalAlign=top;spacingLeft=4;spacingRight=4;overflow=hidden;rotatable=0;points=[[0,0.5],[1,0.5]];portConstraint=eastwest;fontColor=#000000;" parent="rckTkFBSu85tZm66KFjv-7" vertex="1">
                    <mxGeometry y="52" width="180" height="26" as="geometry"/>
                </mxCell>
                <mxCell id="rckTkFBSu85tZm66KFjv-10" value="fk_bustation: int" style="text;strokeColor=#006EAF;fillColor=#1ba1e2;align=left;verticalAlign=top;spacingLeft=4;spacingRight=4;overflow=hidden;rotatable=0;points=[[0,0.5],[1,0.5]];portConstraint=eastwest;fontColor=#000000;" parent="rckTkFBSu85tZm66KFjv-7" vertex="1">
                    <mxGeometry y="78" width="180" height="26" as="geometry"/>
                </mxCell>
                <mxCell id="rckTkFBSu85tZm66KFjv-14" value="fk_city: int" style="text;strokeColor=#006EAF;fillColor=#1ba1e2;align=left;verticalAlign=top;spacingLeft=4;spacingRight=4;overflow=hidden;rotatable=0;points=[[0,0.5],[1,0.5]];portConstraint=eastwest;fontColor=#000000;" parent="rckTkFBSu85tZm66KFjv-7" vertex="1">
                    <mxGeometry y="104" width="180" height="26" as="geometry"/>
                </mxCell>
                <mxCell id="rckTkFBSu85tZm66KFjv-16" style="edgeStyle=orthogonalEdgeStyle;html=1;exitX=0;exitY=0.5;exitDx=0;exitDy=0;entryX=1;entryY=0.5;entryDx=0;entryDy=0;endArrow=none;endFill=0;startArrow=ERmany;startFill=0;fontColor=#000000;strokeColor=#2000F0;" parent="oxJ8J-DIxBXLLxTFxaPv-1" source="rckTkFBSu85tZm66KFjv-14" target="_QJzeNLE5xnhNLzjGvBp-19" edge="1">
                    <mxGeometry relative="1" as="geometry"/>
                </mxCell>
            </root>
        </mxGraphModel>
    </diagram>
</mxfile>